<svg width="24" height="24" viewBox="0 0 24 24" fill="none" xmlns="http://www.w3.org/2000/svg">
<path d="M9.94982 18.2927L7.12183 21.1207C5.94941 22.2931 4.05076 22.2931 2.87932 21.1209C1.70765 19.9492 1.70765 18.0504 2.87909 16.8789L8.53604 11.222C9.70747 10.0505 11.6063 10.0505 12.7778 11.222C13.1683 11.6125 13.8014 11.6125 14.192 11.222C14.5825 10.8315 14.5825 10.1983 14.192 9.80778C12.2394 7.85527 9.07434 7.85527 7.12183 9.80778L1.46493 15.4647C-0.487578 17.4173 -0.487578 20.5824 1.46493 22.5349C3.4172 24.4884 6.58254 24.4884 8.53608 22.5349L11.3641 19.7069C11.7546 19.3164 11.7546 18.6832 11.3641 18.2927C10.9736 17.9022 10.3403 17.9022 9.94982 18.2927Z" fill="black"/>
<path d="M22.5351 8.53492C24.4876 6.58241 24.4876 3.4173 22.5351 1.46479C20.5827 -0.487675 17.4177 -0.487675 15.4642 1.46455L12.071 4.85775C11.6805 5.24826 11.6805 5.88144 12.071 6.27196C12.4615 6.66247 13.0947 6.66247 13.4852 6.27196L16.8782 2.87899C18.0504 1.7075 19.9494 1.7075 21.1209 2.87899C22.2924 4.05043 22.2924 5.94927 21.1209 7.12071L14.899 13.3426C13.7275 14.5141 11.8287 14.5141 10.6573 13.3426C10.2668 12.9521 9.63359 12.9521 9.24308 13.3426C8.85257 13.7332 8.85257 14.3663 9.24308 14.7568C11.1956 16.7094 14.3607 16.7094 16.3132 14.7568L22.5351 8.53492Z" fill="black"/>
<path d="M18.7076 17.2932C18.3171 16.9027 17.6839 16.9027 17.2934 17.2932C16.9029 17.6837 16.9029 18.3169 17.2934 18.7074L20.2923 21.7064C20.6828 22.0969 21.316 22.0969 21.7065 21.7064C22.097 21.3159 22.097 20.6827 21.7065 20.2922L18.7076 17.2932Z" fill="black"/>
<path d="M5.29426 6.70835C5.68477 7.09886 6.31795 7.09886 6.70846 6.70835C7.09897 6.31784 7.09897 5.68466 6.70846 5.29415L3.70648 2.29217C3.31597 1.90166 2.68279 1.90166 2.29227 2.29217C1.90176 2.68268 1.90176 3.31586 2.29227 3.70637L5.29426 6.70835Z" fill="black"/>
<path d="M22.9998 14.9998H19.9999C19.4476 14.9998 18.9999 15.4475 18.9999 15.9998C18.9999 16.5521 19.4476 16.9998 19.9999 16.9998H22.9998C23.5521 16.9998 23.9998 16.5521 23.9998 15.9998C23.9998 15.4475 23.5521 14.9998 22.9998 14.9998Z" fill="black"/>
<path d="M8.00003 4.99996C8.55231 4.99996 9.00001 4.55226 9.00001 3.99998V1.00002C9.00001 0.447698 8.55231 0 8.00003 0C7.44776 0 7.00006 0.447698 7.00006 0.999973V3.99994C7.00001 4.55221 7.44776 4.99996 8.00003 4.99996Z" fill="black"/>
<path d="M1.00009 8.99989H4.00006C4.55233 8.99989 5.00003 8.55219 5.00003 7.99992C5.00003 7.44764 4.55233 6.99995 4.00006 6.99995H1.00009C0.44782 6.99995 0.00012207 7.44764 0.00012207 7.99992C0.00012207 8.55219 0.44782 8.99989 1.00009 8.99989Z" fill="black"/>
<path d="M15.9999 18.9998C15.4476 18.9998 14.9999 19.4475 14.9999 19.9997V22.9997C14.9999 23.552 15.4476 23.9997 15.9999 23.9997C16.5522 23.9997 16.9999 23.552 16.9999 22.9997V19.9997C16.9999 19.4475 16.5522 18.9998 15.9999 18.9998Z" fill="black"/>
</svg>
