<svg width="24" height="24" viewBox="0 0 24 24" fill="none" xmlns="http://www.w3.org/2000/svg">
<path d="M23.9936 13.2554C23.9936 13.1067 23.9136 12.9696 23.7842 12.8965L23.784 12.8964C23.7837 12.8962 23.7832 12.8959 23.7829 12.8957C23.759 12.8799 23.7335 12.8662 23.7068 12.855L18.2311 10.4079V3.04387C18.2311 3.04031 18.2311 3.0368 18.231 3.03328C18.2309 3.03211 18.2309 3.03098 18.2309 3.02981C18.2308 3.02747 18.2308 3.02508 18.2306 3.02273C18.2306 3.02133 18.2305 3.01992 18.2304 3.01852C18.2303 3.01552 18.2301 3.01247 18.2299 3.00947C18.2297 3.00736 18.2295 3.0053 18.2293 3.00323C18.2293 3.00216 18.2292 3.00103 18.2291 2.99995C18.2203 2.90611 18.1839 2.82028 18.128 2.75072C18.1273 2.74973 18.1265 2.74875 18.1257 2.74777C18.1245 2.74641 18.1234 2.74505 18.1223 2.74369C18.1211 2.74228 18.1199 2.74088 18.1187 2.73947C18.1178 2.73844 18.117 2.73741 18.1161 2.73642C18.114 2.73398 18.1118 2.73155 18.1096 2.72916C18.1092 2.72869 18.1088 2.72822 18.1083 2.72775C18.1063 2.72559 18.1043 2.72344 18.1023 2.72133C18.1018 2.72081 18.1014 2.72034 18.1009 2.71983C18.0986 2.71748 18.0964 2.71514 18.0941 2.71284C18.0939 2.7127 18.0938 2.71256 18.0936 2.71242C18.0911 2.70984 18.0884 2.70727 18.0858 2.70473C18.0857 2.70464 18.0856 2.70459 18.0855 2.7045C18.0831 2.7022 18.0807 2.69991 18.0782 2.69766C18.0777 2.69723 18.0772 2.69681 18.0768 2.69639C18.0745 2.69438 18.0722 2.69231 18.0699 2.69034C18.0695 2.69002 18.0692 2.68964 18.0688 2.68931C18.0662 2.68711 18.0636 2.68491 18.061 2.68275C18.0602 2.68214 18.0595 2.68153 18.0588 2.68097C18.057 2.67956 18.0553 2.67811 18.0535 2.6767C18.0523 2.67577 18.0511 2.67483 18.0499 2.67389C18.0485 2.67286 18.0472 2.67183 18.0459 2.6708C18.0147 2.64703 17.9804 2.62711 17.9437 2.61169L12.1913 0.0407813C12.0696 -0.0135937 11.9305 -0.0135937 11.8088 0.0407813L6.05619 2.61159C6.01953 2.62702 5.98527 2.64694 5.95405 2.6707C5.95269 2.67173 5.95133 2.67277 5.95002 2.6738C5.9488 2.67473 5.94763 2.67567 5.94646 2.67661C5.94467 2.67802 5.94294 2.67942 5.94116 2.68088C5.94041 2.68148 5.93966 2.68205 5.93896 2.68266C5.93633 2.68481 5.93375 2.68702 5.93117 2.68922C5.9308 2.68955 5.93042 2.68987 5.93 2.69025C5.92771 2.69222 5.92541 2.69428 5.92316 2.6963C5.92269 2.69672 5.92222 2.69714 5.92175 2.69756C5.91927 2.69981 5.91683 2.70211 5.91439 2.70441C5.9143 2.7045 5.91425 2.70455 5.91416 2.70464C5.91149 2.70717 5.90886 2.70975 5.90628 2.71233C5.90614 2.71247 5.906 2.71261 5.90586 2.71275C5.90356 2.71505 5.90131 2.71739 5.89907 2.71973C5.8986 2.72025 5.89808 2.72072 5.89761 2.72123C5.8956 2.72334 5.89358 2.7255 5.89161 2.72766C5.89119 2.72812 5.89072 2.72859 5.8903 2.72906C5.88814 2.73145 5.88599 2.73389 5.88383 2.73633C5.88294 2.73731 5.8821 2.73834 5.88121 2.73937C5.88003 2.74078 5.87881 2.74219 5.87764 2.74359C5.87652 2.74495 5.87539 2.74631 5.87427 2.74767C5.87347 2.74866 5.87267 2.74964 5.87192 2.75063C5.81605 2.82019 5.77963 2.90597 5.77091 2.99986C5.77081 3.00094 5.77072 3.00206 5.77063 3.00314C5.77044 3.00525 5.77025 3.00731 5.77011 3.00937C5.76988 3.01237 5.76969 3.01542 5.76955 3.01842C5.76946 3.01983 5.76941 3.02123 5.76936 3.02264C5.76927 3.02498 5.76917 3.02738 5.76908 3.02972C5.76903 3.03089 5.76903 3.03202 5.76899 3.03319C5.76889 3.0367 5.76885 3.04027 5.76885 3.04378V10.4078L0.293143 12.8549C0.293002 12.855 0.292862 12.855 0.292721 12.8551C0.119565 12.9277 0.00640869 13.097 0.00640869 13.2847V13.287V20.9548C0.00640869 21.1396 0.115065 21.3073 0.283909 21.3827C0.283909 21.3827 6.047 23.9582 6.04733 23.9583L6.05005 23.9595C6.16874 24.0132 6.30477 24.0135 6.42364 23.9602L6.42885 23.9579L12 21.4682L17.5712 23.958C17.5713 23.958 17.5785 23.9607 17.5901 23.9651C17.7075 24.0098 17.8381 24.0073 17.9536 23.958C17.9537 23.958 17.9537 23.9579 17.9537 23.9579L23.7161 21.3827C23.8849 21.3073 23.9936 21.1396 23.9936 20.9548V13.287V13.2554ZM17.7625 15.3488L13.1489 13.287L17.7625 11.2252L22.3761 13.287L17.7625 15.3488ZM12 7.47942C12.2589 7.47942 12.4687 7.26956 12.4687 7.01072V5.92308L17.2937 3.76683V10.4078L12.4687 12.5641V11.2486C12.4687 10.9897 12.2589 10.7798 12 10.7798C11.7412 10.7798 11.5313 10.9897 11.5313 11.2486V12.5641L6.70635 10.4078V3.76683L11.5313 5.92308V7.01072C11.5313 7.26961 11.7412 7.47942 12 7.47942ZM12 0.982125L16.6137 3.04397L12 5.10572L7.38641 3.04392L12 0.982125ZM6.2376 11.2252L10.8512 13.287L6.2376 15.3488L1.62402 13.287L6.2376 11.2252ZM0.943862 14.0099L5.78155 16.1718C5.77325 16.2067 5.76885 16.2431 5.76885 16.2806V22.8071L0.943862 20.6508V14.0099ZM6.6936 16.1718L11.5313 14.0099V20.6509L6.7063 22.8072V16.2805C6.7063 16.2431 6.70189 16.2067 6.6936 16.1718ZM12.4687 14.0099L17.3064 16.1718C17.2981 16.2067 17.2937 16.2431 17.2937 16.2806V22.8071L12.4687 20.6508V14.0099ZM18.2312 22.8071V16.2805C18.2312 16.2431 18.2268 16.2067 18.2185 16.1718L23.0562 14.0098V20.6508L18.2312 22.8071Z" fill="black"/>
<path d="M12 9.58966C11.8016 9.58966 11.6197 9.45963 11.5561 9.27157C11.4961 9.09438 11.55 8.89202 11.6909 8.76864C11.8445 8.63416 12.0739 8.61592 12.2473 8.72317C12.4135 8.82602 12.4995 9.02936 12.4577 9.22024C12.411 9.4331 12.2182 9.58966 12 9.58966Z" fill="black"/>
</svg>
